PathFileType	4	(X/Y/Z)	..\data\2014014\dynamic\2014014_C4_05.trc
DataRate	CameraRate	NumFrames	NumMarkers	Units	OrigDataRate	OrigDataStartFrame	OrigNumFrames
100.000000	100.000000	4	52	mm	100.000000	135	180
Frame#	Time	L_IAS			L_IPS			R_IPS			R_IAS			L_FTC			L_FLE			L_FME			L_FAX			L_TTC			L_FAL			L_TAM			L_FCC			L_FM1			L_FM2			L_FM5			R_FTC			R_FLE			R_FME			R_FAX			R_TTC			R_FAL			R_TAM			R_FCC			R_FM1			R_FM2			R_FM5			CV7			TV10			SXS			SJN			L_SIA			L_SRS			L_SAA			L_SAE			L_HLE			L_HME			L_UOA			L_RSP			L_UHE			L_HM2			L_HM5			R_SIA			R_SRS			R_SAA			R_SAE			R_HLE			R_HME			R_UOA			R_RSP			R_UHE			R_HM2			R_HM5			
		X1	Y1	Z1	X2	Y2	Z2	X3	Y3	Z3	X4	Y4	Z4	X5	Y5	Z5	X6	Y6	Z6	X7	Y7	Z7	X8	Y8	Z8	X9	Y9	Z9	X10	Y10	Z10	X11	Y11	Z11	X12	Y12	Z12	X13	Y13	Z13	X14	Y14	Z14	X15	Y15	Z15	X16	Y16	Z16	X17	Y17	Z17	X18	Y18	Z18	X19	Y19	Z19	X20	Y20	Z20	X21	Y21	Z21	X22	Y22	Z22	X23	Y23	Z23	X24	Y24	Z24	X25	Y25	Z25	X26	Y26	Z26	X27	Y27	Z27	X28	Y28	Z28	X29	Y29	Z29	X30	Y30	Z30	X31	Y31	Z31	X32	Y32	Z32	X33	Y33	Z33	X34	Y34	Z34	X35	Y35	Z35	X36	Y36	Z36	X37	Y37	Z37	X38	Y38	Z38	X39	Y39	Z39	X40	Y40	Z40	X41	Y41	Z41	X42	Y42	Z42	X43	Y43	Z43	X44	Y44	Z44	X45	Y45	Z45	X46	Y46	Z46	X47	Y47	Z47	X48	Y48	Z48	X49	Y49	Z49	X50	Y50	Z50	X51	Y51	Z51	X52	Y52	Z52	

136	1.35	304.1804504394532	1000.849670410156	119.5404968261719	89.73587036132811	1005.744567871094	184.7396850585938	83.65877532958983	990.4605102539065	286.7519531250001	279.1776428222656	971.1743164062502	370.711639404297	241.5915527343751	908.7637939453127	41.34276199340824	303.8290405273438	498.1533508300782	100.4804687500001	286.4720764160156	490.4942016601564	235.5705108642579	293.1016235351563	433.9794921875001	97.2872390747071	355.0414733886719	431.821746826172	157.7641601562501	313.0162353515626	61.00157928466798	132.2775573730469	325.6010131835938	94.27961730957033	229.8661651611329	256.6595458984376	17.18480873107911	186.9391326904297	454.5062561035157	15.61917400360108	230.4157714843751	471.9027099609376	34.14586257934571	173.8970336914063	420.2408142089845	15.15746784210205	113.7865524291993	203.4095916748047	861.465515136719	422.1100158691407	163.1868133544922	460.613983154297	406.4076538085939	214.1260833740235	445.0280151367189	282.9914855957032	112.8213500976562	435.0234680175782	406.8009643554689	164.1195220947265	381.1051025390626	364.8366394042969	-182.0647430419923	219.1734313964844	354.1798706054688	-129.3417205810547	206.5771789550782	266.3900451660157	-225.2429656982423	232.6066131591797	286.1721191406251	-142.2335662841797	57.31504821777345	268.9674377441407	-130.4213256835938	65.64974975585939	326.0156860351563	-168.220184326172	88.44015502929689	379.0436401367188	128.4543914794922	1522.219970703125	235.5636291503907	41.0845031738281	1274.027465820313	240.4201202392579	312.3197326660156	1251.502197265625	241.8867950439454	258.1304626464844	1433.340942382813	242.788299560547	17.79530715942381	1299.591552734375	135.7705688476563	55.84873962402344	1442.236328125	128.7956848144532	95.89281463623047	1439.705444335938	63.42182922363284	143.1234893798828	1435.153198242188	35.19847488403322	116.2479476928711	1098.008178710938	-51.39118957519531	81.24243927001955	1089.036499023438	38.46632766723634	76.41499328613283	1080.815185546875	-20.23781776428222	177.7756805419922	833.3674316406252	-9.400821685790996	107.3235626220704	842.411315917969	-63.66278457641602	194.1244506835938	743.8809814453126	-26.18000411987303	88.87059020996097	760.6596679687501	-68.15325164794922	24.17556381225582	1304.25830078125	362.3557128906251	72.79715728759763	1449.263916015625	370.4636840820313	118.6772918701172	1436.995849609375	437.5047607421876	166.8406524658203	1435.421752929688	454.4027099609376	176.1261444091797	1100.949829101563	546.6929321289064	150.0482788085937	1081.615844726563	450.0413208007814	135.4731292724609	1075.550170898438	518.0745239257814	307.55029296875	866.1975097656252	505.8001098632814	237.864990234375	857.7784423828127	566.7988281250001	354.1606140136719	783.8942871093752	537.4426879882814	245.7794952392578	759.1221313476564	562.2634887695314	
137	1.36	315.2390441894532	1001.853149414063	118.5954208374024	100.6430816650391	1006.883728027344	183.6014862060547	94.07312011718749	991.4619750976565	285.3921508789063	289.715087890625	972.305114746094	369.7693176269532	251.8206481933594	909.563415527344	40.26062011718754	308.1412048339844	498.1951599121095	100.226676940918	290.8169555664062	490.8040466308595	235.2965698242188	296.3436584472657	434.0765991210939	97.09415435791023	358.4900817871094	431.3255615234376	157.4007110595704	312.8580627441407	61.08394622802736	132.6954193115235	325.7216186523438	94.21836853027345	230.2884826660157	256.5468444824219	17.03079795837403	187.1328887939454	454.3450012207032	15.47338581085205	230.5933837890626	471.9273681640626	34.25290298461915	173.9976806640626	420.0998535156251	15.44744491577149	113.818084716797	215.0296783447266	862.1819458007815	420.983612060547	187.2332611083984	460.4032592773439	408.1679992675782	238.4827117919922	445.4433898925782	284.3743286132814	137.4258422851562	435.6031799316407	408.6201782226564	187.7918701171875	381.5448608398438	365.8120727539063	-162.2406616210938	228.1601104736329	354.2041320800782	-110.1275787353516	214.3164062500001	266.1863708496094	-205.4926300048829	242.9182586669922	286.2145080566407	-127.5636672973633	64.2272415161133	270.0600585937501	-115.3614578247071	72.18914031982423	326.5409240722657	-151.8953704833985	97.75831604003909	379.3449707031251	139.5459289550781	1523.548706054688	234.5885772705079	51.93797302246092	1275.510375976563	239.5213775634766	323.2419738769531	1252.706176757813	241.3821258544923	269.0900268554688	1434.661376953125	242.071014404297	29.08387756347655	1300.998657226563	134.4594268798828	67.16127014160156	1443.575317382813	127.6367340087891	107.4550552368164	1440.975830078125	62.32238388061526	154.8147735595703	1436.40869140625	34.25799179077151	130.9544525146485	1098.7705078125	-52.73236083984375	95.35134124755861	1089.514038085938	36.9051208496094	91.06990051269533	1081.07177734375	-21.85901641845702	196.7088165283204	835.2877197265627	-10.0255661010742	126.1121673583985	843.1446533203127	-64.43006896972656	214.4435272216797	746.1091918945314	-26.81094741821287	109.095687866211	760.9747314453126	-69.09407806396484	34.99470520019528	1305.7216796875	361.3676452636719	83.70387268066403	1450.668579101563	369.5026245117188	129.5460815429687	1438.468505859375	436.6236267089845	177.6727142333984	1436.858642578125	453.5697021484376	185.8468627929687	1102.0263671875	545.0319213867189	159.69091796875	1083.244750976563	448.4443359375001	144.9808502197265	1077.1728515625	516.3865966796876	314.1252136230469	865.773620605469	504.4074707031252	244.4494171142578	858.3145751953127	565.5267333984376	359.5851135253906	782.553405761719	535.4377441406251	250.9194793701172	759.5755615234376	560.9008178710939	
138	1.37	326.1671447753907	1002.639221191406	117.7922439575196	111.4023818969727	1008.01220703125	182.4485473632813	104.3496475219727	992.571472167969	283.9929504394532	300.0447387695312	973.5963134765627	369.0573120117189	261.8694152832032	910.1856079101565	39.32847976684575	311.9790344238282	498.1695556640626	100.0207595825196	294.9661865234375	491.0672607421876	235.1149444580079	299.0937500000001	434.1176757812501	96.96139526367195	361.6021423339844	430.804656982422	156.948959350586	312.6375732421876	61.11885452270509	133.0527954101563	325.7984924316407	94.11645507812501	230.6345520019532	256.3841247558594	16.89052963256836	187.3255615234376	454.1832580566407	15.34157752990723	230.7632598876954	471.8781738281251	34.27870178222657	174.0965423583985	419.9519653320314	15.57470607757569	113.8850784301759	226.2803497314453	863.1666259765627	420.0189819335939	211.1815643310547	460.717987060547	409.630340576172	262.5958557128906	446.6062316894532	285.3498840332032	161.9872436523437	436.5665283203126	410.1419982910157	211.5846710205078	382.5071716308594	366.4788513183594	-141.5345611572266	236.2601623535157	354.2621459960938	-89.98098754882817	221.543685913086	266.0010681152344	-184.9921875000001	251.8903045654297	286.3283386230469	-110.2053680419922	70.89113616943361	271.1039428710938	-97.79087829589851	78.7639846801758	327.0964660644532	-133.3995513916016	106.3741073608399	379.6209716796876	150.5843200683594	1524.873168945313	233.7055206298829	62.67354583740233	1277.01611328125	238.583724975586	334.01123046875	1253.832153320313	240.9790496826173	279.9619140625	1435.922485351563	241.4855957031251	40.28727340698241	1302.493896484375	133.089340209961	78.46982574462891	1444.989135742188	126.468978881836	119.0616989135742	1442.328002929688	61.25251770019534	166.5629272460938	1437.728637695313	33.37922668457034	145.7064514160157	1099.597412109375	-54.05985260009765	109.4658966064453	1090.060302734375	35.30015563964846	105.7728347778321	1081.382568359375	-23.51134490966796	215.7899627685547	837.4017333984377	-10.50357341766355	145.07666015625	843.996520996094	-65.08805847167969	234.9756774902344	748.5656738281251	-27.31556320190428	129.6013641357422	761.4336547851564	-69.89951324462891	45.59463882446286	1307.142944335938	360.2619628906251	94.43919372558591	1452.019409179688	368.5569458007813	140.1898345947265	1439.830322265625	435.7873840332032	188.2711791992187	1438.16259765625	452.811737060547	195.4725799560547	1103.003662109375	543.5010986328126	169.1812744140625	1084.695922851563	446.9661865234376	154.4234313964843	1078.62841796875	514.8399047851564	320.6798400878906	865.321960449219	502.9818420410158	251.1302795410156	858.8121337890627	564.3304443359376	365.0103454589844	781.2034301757815	533.3192749023439	256.1558837890625	760.0119018554689	559.6434936523439	
139	1.38	336.9735107421876	1003.240356445313	117.1063995361329	122.0318756103516	1009.143676757813	181.2989654541016	114.545524597168	993.7819824218752	282.6036376953126	310.2317810058594	975.0593872070315	368.5403442382814	271.7507934570313	910.6582031250002	38.54413604736332	315.4674987792969	498.1165771484376	99.85484313964851	298.9810485839844	491.3057250976564	235.0125885009766	301.4919128417969	434.1422729492189	96.88597106933601	364.4694519042969	430.2813110351564	156.4442138671876	312.3862304687501	61.12225341796876	133.339584350586	325.8436584472657	93.99627685546876	230.8975677490235	256.1879577636719	16.78412818908692	187.4935760498047	454.0309143066407	15.20508480072022	230.9209747314454	471.7912597656251	34.21469116210938	174.1932067871095	419.8128662109376	15.55925369262696	113.9637908935548	237.2487030029297	864.4270629882815	419.2146606445314	234.9496002197266	461.5708618164064	410.8011474609377	286.3847351074219	448.4950561523439	285.9554138183595	186.3802947998047	437.9214477539064	411.3587646484376	235.4108428955078	383.9861755371094	366.8833312988282	-120.0424270629884	243.280502319336	354.3552246093751	-68.96153259277348	228.0797729492188	265.8489074707032	-163.8408355712891	259.3426818847657	286.5059509277344	-90.21173095703129	77.06044769287111	272.0411071777344	-77.76141357421881	85.12790679931642	327.6452941894532	-112.8284149169923	114.0051956176758	379.8448791503907	161.5632934570312	1526.1865234375	232.9075012207032	73.31075286865233	1278.518798828125	237.6045074462891	344.6455078125	1254.894775390625	240.6606750488282	290.7516174316406	1437.12841796875	241.0245361328126	51.41763687133789	1304.0634765625	131.6533203125	89.76918792724609	1446.460327148438	125.2958297729493	130.7007598876953	1443.754516601563	60.21099090576175	178.355209350586	1439.112426757813	32.55950164794925	160.5019226074219	1100.494995117188	-55.36784362792968	123.5941543579102	1090.678344726563	33.65011215209963	120.5298309326172	1081.754272460938	-25.19323539733886	234.9609985351563	839.7087402343752	-10.81905555725095	164.1854553222657	844.9749145507815	-65.63880157470703	255.6753845214844	751.2612304687501	-27.6805896759033	150.3530883789063	762.0602416992189	-70.56502532958984	55.99024581909177	1308.503295898438	359.0399780273438	104.9967651367187	1453.306762695313	367.6199951171876	150.6023254394531	1441.0771484375	434.9859924316407	198.6296844482422	1439.336547851563	452.1213684082032	204.9824066162109	1103.884643554688	542.0860595703126	178.5140380859375	1085.97705078125	445.5953979492189	163.780044555664	1079.921875	513.4197387695314	327.2278137207031	864.856872558594	501.5290832519533	257.9162902832031	859.2779541015627	563.2055664062501	370.4660339355469	779.8753662109377	531.1228027343751	261.5161437988281	760.4376831054689	558.4989624023439	
